<svg xmlns="http://www.w3.org/2000/svg" width="402" height="186" fill="none"><path stroke="#FCC419" d="M184.812.5v24.696H150.32v60.655h-25.059V25.196H76.522c-.625 0-1.26.073-1.83.233-.562.159-1.098.414-1.481.807-.4.41-.612.951-.53 1.595.08.617.423 1.281 1.022 1.996l16.769 19.984c4.815 5.739 5.2 14.736 1.757 22.347-3.432 7.587-10.625 13.693-20.843 13.693H.5V61.037h61.052c1.008 0 1.83-.096 2.448-.315.624-.222 1.107-.6 1.282-1.195.166-.564.012-1.189-.294-1.815-.311-.637-.82-1.357-1.49-2.156l-15.24-18.157C37.354 24.406 46.11.5 66.962.5h117.85ZM80.107 145.891l10.162-45.878h24.869l-20.471 85.351H68.926L58.66 139.051h-.977l-10.266 46.313h-25.74l-20.49-85.351h24.622l10.163 45.859h.976l10.167-45.859H68.96l10.172 45.878h.976ZM247.01 73.582l-.092-.383h-32.329l-.092.383-2.944 12.269h-24.979L207.087.533 254.717.5l20.489 85.351h-25.253l-2.943-12.269Zm-16.259-56.945h-.374l-.106.358-11.519 38.868-.19.642h24.382l-.19-.642-11.519-38.868-.106-.358h-.378ZM316.445 58.054c-.945-.944-1.787-1.638-2.528-2.052-.73-.407-1.46-.596-2.112-.34-.657.26-1.05.896-1.282 1.687-.236.8-.342 1.871-.342 3.188V85.85h-25.012l.047-85.35 52.034.07c14.665.02 23.8 8.507 26.817 18.71 3.024 10.228-.092 22.186-10.005 29.177-2.528 1.785-7.058 4.087-9.748 5.246l-.675.291.518.521 5.292 5.32.081.082c.366.368.673.679 1.08.866.444.205.961.248 1.72.248h48.338v24.814H351.234c-3.425 0-5.097 0-6.632-.647-1.561-.658-3.012-2-5.921-4.91l-22.236-22.235Zm-5.768-36.875h-.5v22.636h21.074c7.55 0 11.765-5.66 11.979-11.3.108-2.819-.782-5.658-2.77-7.796-1.995-2.145-5.054-3.54-9.2-3.54H310.677ZM344.121 155.069h-.001l-15.239-18.162-.383.322.383-.322c-10.904-12.993-2.148-36.899 18.704-36.899h53.078v24.697h-43.518c-1.052 0-1.905.079-2.555.254-.641.172-1.173.461-1.449.95-.286.505-.22 1.078.004 1.626.224.547.635 1.15 1.181 1.801l16.769 19.984c4.815 5.738 5.199 14.735 1.757 22.346-3.432 7.587-10.625 13.693-20.843 13.693h-69.611c-3.426.001-5.096.001-6.63-.647-1.561-.658-3.012-2-5.924-4.909l-22.235-22.236c-.944-.944-1.786-1.638-2.527-2.052-.729-.408-1.459-.597-2.111-.341-.657.258-1.051.894-1.284 1.685-.236.802-.342 1.873-.342 3.191v25.314h-25.012l.051-85.35 52.035.07c14.664.021 23.8 8.507 26.817 18.711 3.024 10.228-.093 22.188-10.006 29.181-2.528 1.784-7.058 4.087-9.748 5.246l-.675.291.519.521 5.292 5.32.08.081c.366.369.674.68 1.08.867.444.205.962.248 1.72.248h58.677c.902 0 1.664-.107 2.253-.342.598-.24 1.055-.63 1.25-1.203.189-.556.094-1.179-.175-1.816-.27-.641-.737-1.35-1.382-2.12ZM241.85 120.692h-.5v22.636h21.074c7.55 0 11.765-5.661 11.979-11.299.108-2.82-.782-5.659-2.77-7.797-1.995-2.145-5.054-3.54-9.2-3.54H241.85ZM177.829 173.095l-.092-.383h-32.329l-.092.383-2.944 12.269h-24.974l20.508-85.314 47.63-.037 20.49 85.351h-25.253l-2.944-12.269Zm-16.254-56.945h-.373l-.106.358-11.52 38.868-.19.642H173.769l-.191-.642-11.519-38.868-.106-.358h-.378Z"/></svg>